<svg width="188" height="40" viewBox="0 0 188 40" fill="none" xmlns="http://www.w3.org/2000/svg">
<path d="M30.7875 17.828C30.2822 18.3364 29.8952 18.95 29.6542 19.6249C29.4131 20.3 29.3239 21.0199 29.3928 21.7333L29.3688 21.7093C29.4398 22.5492 29.3264 23.3943 29.037 24.1859C28.7475 24.9773 28.2888 25.6961 27.693 26.2921C27.097 26.888 26.3782 27.3468 25.5866 27.6361C24.7951 27.9256 23.9499 28.0389 23.1102 27.968L23.1342 27.992C22.1296 27.8985 21.1207 28.1171 20.2448 28.618C19.3691 29.1189 18.6691 29.8777 18.2404 30.7911C17.8118 31.7044 17.6751 32.7276 17.8492 33.7215C18.0235 34.7152 18.4999 35.6311 19.2136 36.3441C19.9274 37.0572 20.8436 37.5328 21.8375 37.706C22.8315 37.8793 23.8546 37.7417 24.7675 37.3123C25.6804 36.8827 26.4386 36.1821 26.9387 35.3059C27.4388 34.4296 27.6566 33.4205 27.5622 32.416L27.5875 32.44C27.5166 31.6003 27.6298 30.7551 27.9192 29.9635C28.2087 29.172 28.6675 28.4532 29.2634 27.8572C29.8594 27.2613 30.5782 26.8025 31.3696 26.5132C32.1612 26.2237 33.0063 26.1104 33.8462 26.1813L33.8208 26.1573C34.6414 26.2311 35.4674 26.0965 36.2222 25.7661C36.9768 25.4357 37.636 24.9201 38.1384 24.2672C38.6408 23.6143 38.9704 22.8449 39.0963 22.0308C39.2223 21.2165 39.1407 20.3837 38.8591 19.6093C38.5775 18.8351 38.105 18.1444 37.4854 17.6013C36.8658 17.0583 36.1191 16.6804 35.3146 16.5028C34.51 16.3252 33.6736 16.3535 32.883 16.5851C32.0923 16.8168 31.373 17.2443 30.7915 17.828H30.7875Z" fill="#666666"/>
<path d="M20.9514 24.848L20.9261 24.824C21.6398 24.8958 22.3606 24.8082 23.0365 24.5674C23.7122 24.3266 24.3261 23.9388 24.8335 23.4317C25.3409 22.9246 25.7294 22.311 25.9706 21.6354C26.2119 20.9598 26.3001 20.2392 26.2287 19.5253L26.2541 19.5493C26.1831 18.7094 26.2965 17.8644 26.5858 17.0728C26.8753 16.2813 27.3341 15.5625 27.9299 14.9665C28.5259 14.3706 29.2447 13.9118 30.0362 13.6225C30.8278 13.333 31.6729 13.2197 32.5127 13.2906L32.4874 13.2666C33.4921 13.361 34.5013 13.1431 35.3775 12.6428C36.2539 12.1424 36.9545 11.3839 37.3838 10.4708C37.8131 9.55761 37.9503 8.53423 37.7767 7.54022C37.6031 6.54621 37.1271 5.62997 36.4135 4.91645C35.7001 4.20294 34.7838 3.72689 33.7898 3.55326C32.7958 3.37962 31.7725 3.51683 30.8593 3.94619C29.9461 4.37554 29.1877 5.07614 28.6873 5.95242C28.1869 6.82869 27.969 7.83798 28.0634 8.84262L28.0394 8.81729C28.1105 9.65714 27.9974 10.5024 27.7081 11.294C27.4187 12.0856 26.9599 12.8046 26.3641 13.4006C25.7681 13.9965 25.0491 14.4553 24.2575 14.7446C23.4658 15.034 22.6206 15.147 21.7807 15.076L21.8047 15.1013C21.091 15.0294 20.3701 15.117 19.6943 15.3578C19.0186 15.5985 18.4047 15.9865 17.8973 16.4936C17.3898 17.0006 17.0014 17.6142 16.7601 18.2898C16.5189 18.9654 16.4307 19.6861 16.5021 20.4L16.4781 20.376C16.5487 21.2157 16.4353 22.0608 16.1458 22.8522C15.8562 23.6436 15.3975 24.3624 14.8017 24.9582C14.2057 25.5541 13.487 26.0128 12.6956 26.3024C11.9042 26.5918 11.0591 26.7053 10.2194 26.6346L10.2434 26.6586C9.23875 26.5642 8.22945 26.7821 7.35317 27.2825C6.47691 27.7829 5.77631 28.5413 5.34696 29.4545C4.9176 30.3677 4.78037 31.391 4.95401 32.385C5.12765 33.379 5.60371 34.2953 6.31721 35.0088C7.03073 35.7224 7.94698 36.1984 8.94099 36.372C9.935 36.5456 10.9584 36.4084 11.8715 35.979C12.7847 35.5497 13.5432 34.8492 14.0435 33.9729C14.5439 33.0965 14.7618 32.0873 14.6674 31.0826L14.6927 31.1066C14.6218 30.2668 14.7351 29.4217 15.0246 28.6301C15.3139 27.8386 15.7727 27.1198 16.3686 26.5238C16.9646 25.928 17.6834 25.4692 18.4749 25.1798C19.2665 24.8904 20.1115 24.777 20.9514 24.848Z" fill="#666666"/>
<path d="M12.0156 22.172C12.521 21.6637 12.9079 21.0501 13.1487 20.375C13.3896 19.7 13.4785 18.98 13.409 18.2666L13.4343 18.2906C13.3633 17.4506 13.4766 16.6052 13.7662 15.8134C14.0559 15.0217 14.5148 14.3028 15.1111 13.7068C15.7074 13.1108 16.4264 12.6521 17.2183 12.3629C18.0102 12.0736 18.8556 11.9607 19.6956 12.032L19.6703 12.008C20.6746 12.1021 21.6835 11.8841 22.5594 11.3837C23.4352 10.8834 24.1354 10.1251 24.5646 9.21227C24.9936 8.29939 25.1307 7.27639 24.9571 6.28275C24.7835 5.28911 24.3075 4.37321 23.5943 3.65996C22.8811 2.94671 21.9651 2.47081 20.9715 2.29719C19.9779 2.12355 18.9548 2.26064 18.042 2.68973C17.1291 3.11883 16.3708 3.81905 15.8706 4.69492C15.3702 5.57079 15.1522 6.57967 15.2463 7.58396L15.2223 7.55996C15.2932 8.39976 15.1799 9.24492 14.8904 10.0364C14.601 10.828 14.1423 11.5468 13.5464 12.1427C12.9504 12.7387 12.2316 13.1974 11.4401 13.4868C10.6486 13.7762 9.80343 13.8896 8.96363 13.8186L8.98763 13.8426C8.16705 13.769 7.34117 13.9038 6.58653 14.2344C5.83189 14.5649 5.17289 15.0806 4.67061 15.7337C4.16833 16.3866 3.83903 17.156 3.71319 17.9701C3.58736 18.7844 3.66908 19.6172 3.95077 20.3913C4.23247 21.1656 4.70504 21.8561 5.32468 22.399C5.94432 22.9421 6.69099 23.3198 7.49549 23.4974C8.29999 23.6749 9.13629 23.6465 9.92692 23.4149C10.7175 23.1832 11.4369 22.7557 12.0183 22.172H12.0156Z" fill="#666666"/>
<path d="M53.3181 8.87329H57.2781V28.144H53.3181V8.87329Z" fill="#666666"/>
<path d="M59.5209 21.5453C59.5155 20.1605 59.9211 18.8051 60.6864 17.6509C61.4517 16.4968 62.5424 15.5957 63.8203 15.062C65.0981 14.5281 66.5056 14.3856 67.8645 14.6524C69.2235 14.9192 70.4727 15.5832 71.4539 16.5605C72.4351 17.5377 73.1041 18.7843 73.3764 20.1421C73.6487 21.5 73.5117 22.9081 72.9831 24.1881C72.4544 25.468 71.5577 26.5624 70.4067 27.3323C69.2555 28.1023 67.9019 28.5133 66.5169 28.5133C65.5977 28.5239 64.6856 28.3509 63.8339 28.0048C62.9821 27.6587 62.208 27.1463 61.5567 26.4976C60.9052 25.8488 60.3897 25.0767 60.0403 24.2264C59.6907 23.3761 59.5141 22.4647 59.5209 21.5453ZM69.5529 21.5453C69.5364 20.9484 69.3443 20.3696 69.0007 19.8812C68.6569 19.3929 68.1769 19.0167 67.6207 18.7997C67.0643 18.5827 66.4564 18.5344 65.8728 18.6611C65.2892 18.7877 64.7559 19.0835 64.3395 19.5116C63.9232 19.9396 63.6421 20.4809 63.5319 21.0679C63.4215 21.6547 63.4864 22.2611 63.7188 22.8112C63.9512 23.3613 64.3405 23.8307 64.8381 24.1607C65.3359 24.4907 65.9199 24.6667 66.5169 24.6667C66.9259 24.6776 67.3327 24.6036 67.7117 24.4495C68.0907 24.2953 68.4336 24.0644 68.7188 23.7712C69.004 23.4779 69.2255 23.1287 69.3689 22.7456C69.5125 22.3625 69.5752 21.9539 69.5529 21.5453Z" fill="#666666"/>
<path d="M89.2955 14.9454V27.4787C89.2955 31.9134 85.8368 33.788 82.3261 33.788C81.0901 33.8806 79.8524 33.6308 78.7488 33.0664C77.6453 32.5019 76.7185 31.6444 76.0701 30.588L79.4488 28.6347C79.7213 29.1854 80.1556 29.6396 80.6933 29.9368C81.2312 30.2339 81.8469 30.3598 82.4581 30.2974C82.8488 30.3515 83.2467 30.3171 83.6223 30.1967C83.9977 30.0763 84.3415 29.873 84.6279 29.6019C84.9143 29.3307 85.136 28.9987 85.2768 28.6302C85.4175 28.2618 85.4735 27.8664 85.4408 27.4734V26.2667C84.9771 26.834 84.3869 27.2848 83.7175 27.5828C83.048 27.8808 82.3181 28.0178 81.5861 27.9827C79.8445 27.9278 78.1927 27.1974 76.9801 25.9459C75.7676 24.6946 75.0896 23.0204 75.0896 21.278C75.0896 19.5356 75.7676 17.8615 76.9801 16.6102C78.1927 15.3587 79.8445 14.6283 81.5861 14.5734C82.3181 14.5383 83.048 14.6752 83.7175 14.9732C84.3869 15.2712 84.9771 15.722 85.4408 16.2894V14.9427L89.2955 14.9454ZM85.4421 21.28C85.4688 20.6419 85.3037 20.0103 84.9684 19.4667C84.6331 18.923 84.1427 18.4922 83.5604 18.2296C82.9781 17.967 82.3307 17.8847 81.7012 17.9932C81.0717 18.1018 80.4892 18.3962 80.0284 18.8387C79.5677 19.2811 79.25 19.8512 79.116 20.4758C78.9821 21.1003 79.0381 21.7507 79.2771 22.3431C79.5159 22.9355 79.9265 23.443 80.4561 23.8C80.9857 24.1571 81.6101 24.3475 82.2488 24.3467C82.6649 24.3758 83.0824 24.3174 83.4745 24.1752C83.8667 24.0331 84.2247 23.8103 84.5255 23.5215C84.8263 23.2326 85.0633 22.8839 85.2212 22.4978C85.3791 22.1118 85.4544 21.697 85.4421 21.28Z" fill="#666666"/>
<path d="M91.5383 21.5453C91.5328 20.1605 91.9383 18.8051 92.7037 17.6509C93.4691 16.4968 94.5597 15.5957 95.8376 15.062C97.1155 14.5281 98.5229 14.3856 99.8819 14.6524C101.241 14.9192 102.49 15.5832 103.471 16.5605C104.452 17.5377 105.121 18.7843 105.394 20.1421C105.666 21.5 105.529 22.9081 105 24.1881C104.472 25.468 103.575 26.5624 102.424 27.3323C101.273 28.1023 99.9192 28.5133 98.5343 28.5133C97.6151 28.5239 96.7028 28.3509 95.8512 28.0048C94.9995 27.6587 94.2253 27.1463 93.574 26.4976C92.9225 25.8488 92.4071 25.0767 92.0576 24.2264C91.708 23.3761 91.5315 22.4647 91.5383 21.5453ZM101.57 21.5453C101.554 20.9484 101.362 20.3696 101.018 19.8812C100.674 19.3929 100.194 19.0167 99.638 18.7997C99.0816 18.5827 98.4736 18.5344 97.8901 18.6611C97.3065 18.7877 96.7732 19.0835 96.3568 19.5116C95.9405 19.9396 95.6595 20.4809 95.5491 21.0679C95.4387 21.6547 95.5037 22.2611 95.7361 22.8112C95.9685 23.3613 96.3579 23.8307 96.8555 24.1607C97.3532 24.4907 97.9371 24.6667 98.5343 24.6667C98.9432 24.6776 99.35 24.6036 99.7289 24.4495C100.108 24.2953 100.451 24.0644 100.736 23.7712C101.021 23.4779 101.243 23.1287 101.386 22.7456C101.53 22.3625 101.593 21.9539 101.57 21.5453Z" fill="#666666"/>
<path d="M107.377 11.408C107.377 10.9381 107.516 10.4787 107.777 10.088C108.038 9.69723 108.41 9.39268 108.844 9.21285C109.278 9.03301 109.756 8.98596 110.217 9.07764C110.677 9.16932 111.101 9.39561 111.433 9.72791C111.765 10.0602 111.992 10.4835 112.083 10.9445C112.175 11.4053 112.128 11.8831 111.948 12.3172C111.768 12.7514 111.464 13.1225 111.073 13.3836C110.682 13.6447 110.223 13.784 109.753 13.784C109.125 13.7777 108.524 13.5255 108.08 13.0812C107.636 12.6369 107.383 12.0362 107.377 11.408ZM107.777 14.9453H111.738V28.1453H107.772L107.777 14.9453Z" fill="#666666"/>
<path d="M128.837 21.5453C128.883 22.4177 128.755 23.2905 128.463 24.1136C128.17 24.9366 127.717 25.6937 127.131 26.3413C126.545 26.9888 125.836 27.5141 125.046 27.8869C124.256 28.2596 123.4 28.4725 122.527 28.5133C121.794 28.5533 121.06 28.4296 120.38 28.151C119.7 27.8724 119.09 27.446 118.595 26.9026V33.424H114.635V14.9453H118.595V16.1853C119.091 15.6424 119.7 15.2162 120.38 14.938C121.06 14.6596 121.794 14.536 122.527 14.576C123.4 14.6166 124.256 14.8294 125.047 15.2022C125.837 15.575 126.546 16.1004 127.132 16.7481C127.718 17.3958 128.171 18.1532 128.464 18.9765C128.756 19.7997 128.883 20.6728 128.837 21.5453ZM124.877 21.5453C124.861 20.9276 124.664 20.3281 124.309 19.8218C123.955 19.3157 123.459 18.9253 122.884 18.6997C122.309 18.474 121.68 18.4229 121.075 18.553C120.471 18.683 119.919 18.9884 119.487 19.4308C119.056 19.8733 118.765 20.433 118.65 21.0404C118.535 21.6476 118.602 22.275 118.842 22.8445C119.082 23.414 119.485 23.8998 120 24.2416C120.515 24.5832 121.119 24.7654 121.737 24.7653C122.161 24.7842 122.585 24.7132 122.98 24.5569C123.374 24.4008 123.732 24.1628 124.028 23.8588C124.325 23.5546 124.554 23.1914 124.7 22.7928C124.846 22.3941 124.906 21.9689 124.877 21.5453Z" fill="#666666"/>
<path d="M141.057 24.184C141.057 27.22 138.418 28.5133 135.568 28.5133C134.416 28.6176 133.259 28.3741 132.247 27.814C131.235 27.254 130.415 26.4033 129.892 25.372L133.322 23.4187C133.461 23.8953 133.759 24.3101 134.167 24.5935C134.574 24.8769 135.068 25.012 135.562 24.976C136.512 24.976 136.988 24.6853 136.988 24.1587C136.988 22.7053 130.493 23.472 130.493 18.9053C130.493 16.0267 132.922 14.576 135.668 14.576C136.7 14.5433 137.721 14.7881 138.626 15.2848C139.532 15.7816 140.288 16.512 140.814 17.4L137.436 19.2213C137.288 18.8756 137.041 18.5811 136.726 18.3745C136.412 18.168 136.044 18.0587 135.668 18.06C134.981 18.06 134.558 18.3267 134.558 18.7987C134.564 20.304 141.057 19.3 141.057 24.184Z" fill="#666666"/>
<path d="M155.522 14.9453V28.1453H151.562V26.904C151.105 27.4517 150.525 27.8833 149.869 28.1633C149.213 28.4433 148.501 28.5637 147.789 28.5146C145.122 28.5146 142.855 26.6146 142.855 23.048V14.9453H146.815V22.468C146.782 22.7824 146.818 23.1002 146.921 23.3993C147.022 23.6985 147.189 23.9718 147.407 24.2002C147.626 24.4286 147.891 24.6066 148.186 24.722C148.479 24.8373 148.795 24.8872 149.111 24.868C150.563 24.868 151.566 24.024 151.566 22.1493V14.9493L155.522 14.9453Z" fill="#666666"/>
<path d="M178.229 20.04V28.144H174.269V20.3826C174.269 19.0626 173.636 18.2186 172.369 18.2186C171.049 18.2186 170.309 19.1426 170.309 20.7V28.144H166.35V20.3826C166.35 19.0626 165.717 18.2186 164.449 18.2186C163.129 18.2186 162.39 19.1426 162.39 20.7V28.144H158.43V14.944H162.39V16.1573C162.801 15.619 163.34 15.1921 163.957 14.9157C164.576 14.6392 165.253 14.522 165.928 14.5746C166.605 14.5414 167.28 14.6845 167.886 14.9897C168.492 15.2948 169.008 15.7518 169.385 16.316C169.824 15.7257 170.405 15.2564 171.074 14.9518C171.744 14.6473 172.48 14.5176 173.213 14.5746C176.244 14.576 178.229 16.74 178.229 20.04Z" fill="#666666"/>
<path d="M181.578 14.864C183.201 14.864 184.517 13.5483 184.517 11.9254C184.517 10.3024 183.201 8.98669 181.578 8.98669C179.955 8.98669 178.639 10.3024 178.639 11.9254C178.639 13.5483 179.955 14.864 181.578 14.864Z" fill="#666666"/>
</svg>
