<svg width="156" height="40" viewBox="0 0 156 40" fill="none" xmlns="http://www.w3.org/2000/svg">
<path d="M46.545 12.5875H50.295V27.75H46.545V12.5875ZM51.7825 22.025C51.7825 18.275 54.0825 16.0375 57.6325 16.0375C61.1825 16.0375 63.4825 18.275 63.4825 22.025C63.4825 25.775 61.2325 28.025 57.6325 28.025C54.0325 28.025 51.7825 25.8375 51.7825 22.025ZM59.72 22.025C59.72 19.9625 58.9075 18.75 57.6325 18.75C56.3575 18.75 55.5575 20 55.5575 22.025C55.5575 24.05 56.345 25.275 57.6325 25.275C58.92 25.275 59.72 24.125 59.72 22.0375V22.025ZM64.895 28.4875H68.495C68.6664 28.8681 68.956 29.1832 69.3209 29.386C69.6858 29.5886 70.1064 29.6681 70.52 29.6125C71.945 29.6125 72.695 28.8375 72.695 27.7125V25.6125H72.62C72.3213 26.2561 71.8364 26.7954 71.2282 27.1609C70.6199 27.5262 69.916 27.701 69.2075 27.6625C66.47 27.6625 64.6575 25.575 64.6575 21.9875C64.6575 18.4 66.3825 16.1375 69.2575 16.1375C69.9883 16.1089 70.7103 16.3042 71.3269 16.6974C71.9435 17.0906 72.4253 17.6629 72.7075 18.3375V16.25H76.4575V27.625C76.4575 30.3625 74.045 32.0625 70.4825 32.0625C67.17 32.0625 65.1075 30.575 64.895 28.5V28.4875ZM72.7075 22.0125C72.7075 20.1875 71.87 19.0375 70.545 19.0375C69.22 19.0375 68.4075 20.175 68.4075 22.0125C68.4075 23.85 69.2075 24.8875 70.545 24.8875C71.8825 24.8875 72.7075 23.875 72.7075 22.025V22.0125ZM77.87 22.0125C77.87 18.2625 80.17 16.025 83.72 16.025C87.27 16.025 89.5826 18.2625 89.5826 22.0125C89.5826 25.7625 87.3325 28.0125 83.72 28.0125C80.1075 28.0125 77.87 25.8375 77.87 22.025V22.0125ZM85.8075 22.0125C85.8075 19.95 84.995 18.7375 83.72 18.7375C82.445 18.7375 81.7075 20 81.7075 22.0375C81.7075 24.075 82.495 25.2875 83.77 25.2875C85.045 25.2875 85.8075 24.125 85.8075 22.0375V22.0125ZM91.0075 13.525C90.9977 13.1464 91.1005 12.7734 91.3029 12.4532C91.5054 12.1331 91.7983 11.8803 92.1445 11.7269C92.4908 11.5734 92.8748 11.5262 93.2479 11.5913C93.621 11.6564 93.9664 11.8308 94.2403 12.0923C94.5143 12.3539 94.7043 12.691 94.7864 13.0607C94.8685 13.4305 94.8391 13.8162 94.7015 14.1692C94.5642 14.5221 94.325 14.8264 94.0145 15.0432C93.7042 15.2601 93.3362 15.38 92.9575 15.3875C92.7065 15.4047 92.4547 15.3699 92.2178 15.2851C91.9808 15.2004 91.764 15.0676 91.5809 14.895C91.3978 14.7225 91.2523 14.5139 91.1537 14.2824C91.0549 14.051 91.0052 13.8016 91.0075 13.55V13.525ZM91.0075 16.275H94.7575V27.75H91.0075V16.275ZM108.37 22.0125C108.37 25.7625 106.708 27.9 103.858 27.9C103.127 27.9469 102.399 27.7682 101.773 27.3882C101.147 27.0081 100.653 26.445 100.358 25.775H100.283V31.425H96.5325V16.25H100.283V18.3H100.358C100.639 17.6189 101.124 17.0411 101.746 16.6452C102.368 16.2494 103.096 16.0546 103.833 16.0875C106.708 16.1375 108.42 18.2875 108.42 22.0375L108.37 22.0125ZM104.62 22.0125C104.62 20.1875 103.783 19.025 102.47 19.025C101.158 19.025 100.32 20.2 100.308 22.0125C100.295 23.825 101.158 24.9875 102.47 24.9875C103.783 24.9875 104.62 23.85 104.62 22.0375V22.0125ZM114.808 16.0125C117.92 16.0125 119.808 17.4875 119.895 19.85H116.483C116.483 19.0375 115.808 18.525 114.77 18.525C113.733 18.525 113.27 18.925 113.27 19.5125C113.27 20.1 113.683 20.2875 114.52 20.4625L116.92 20.95C119.208 21.4375 120.183 22.3625 120.183 24.1C120.183 26.475 118.02 28 114.833 28C111.645 28 109.558 26.475 109.395 24.1375H113.008C113.12 24.9875 113.795 25.4875 114.895 25.4875C115.995 25.4875 116.495 25.125 116.495 24.525C116.495 23.925 116.145 23.8 115.245 23.6125L113.083 23.15C110.845 22.6875 109.67 21.5 109.67 19.75C109.695 17.5 111.708 16.0375 114.808 16.0375V16.0125ZM132.695 27.725H129.083V25.5875H129.008C128.809 26.3051 128.371 26.9332 127.766 27.3676C127.161 27.8019 126.426 28.0162 125.683 27.975C125.113 28.0074 124.543 27.9171 124.011 27.7102C123.479 27.5034 122.998 27.1849 122.6 26.776C122.202 26.3672 121.896 25.8776 121.703 25.3405C121.51 24.8034 121.435 24.2311 121.483 23.6625V16.25H125.233V22.8C125.233 24.1625 125.933 24.8875 127.095 24.8875C127.368 24.888 127.638 24.8304 127.886 24.7182C128.134 24.6061 128.356 24.4421 128.536 24.2374C128.715 24.0325 128.85 23.7916 128.929 23.5309C129.008 23.27 129.031 22.9952 128.995 22.725V16.25H132.745L132.695 27.725ZM134.508 16.25H138.133V18.4625H138.208C138.406 17.7544 138.835 17.1321 139.425 16.6934C140.015 16.2546 140.735 16.0239 141.47 16.0375C142.219 15.9776 142.961 16.2015 143.553 16.6647C144.143 17.128 144.538 17.7965 144.658 18.5375H144.733C144.959 17.7886 145.429 17.1366 146.068 16.684C146.705 16.2314 147.476 16.0039 148.258 16.0375C148.768 16.0204 149.275 16.1107 149.748 16.3027C150.221 16.4946 150.648 16.784 151.001 17.1517C151.355 17.5196 151.628 17.9577 151.801 18.4376C151.974 18.9175 152.045 19.4286 152.008 19.9375V27.75H148.258V20.9375C148.258 19.6875 147.695 19.1125 146.645 19.1125C146.411 19.1105 146.179 19.1587 145.965 19.254C145.751 19.3492 145.56 19.4892 145.405 19.6646C145.25 19.84 145.134 20.0465 145.065 20.2704C144.996 20.4944 144.978 20.7304 145.008 20.9625V27.75H141.445V20.8875C141.445 19.7375 140.883 19.1125 139.858 19.1125C139.621 19.1126 139.386 19.1629 139.171 19.26C138.955 19.3572 138.761 19.4991 138.605 19.6762C138.448 19.8534 138.33 20.0619 138.259 20.288C138.189 20.514 138.166 20.7524 138.195 20.9875V27.75H134.445L134.508 16.25Z" fill="#666666"/>
<path d="M36.0575 13.275C35.4214 11.8204 34.5795 10.4649 33.5575 9.24999C32.0469 7.40041 30.1616 5.89172 28.0259 4.82324C25.8901 3.75476 23.5523 3.1507 21.1663 3.05081C18.7803 2.95093 16.4001 3.35747 14.1825 4.24372C11.965 5.12996 9.96023 6.4758 8.30027 8.19265C6.64029 9.90949 5.36273 11.9584 4.55167 14.2046C3.7406 16.4507 3.41442 18.8432 3.59459 21.2245C3.77478 23.6059 4.45722 25.922 5.59702 28.0205C6.73682 30.1191 8.30813 31.9525 10.2075 33.4C11.4263 34.3474 12.773 35.1175 14.2075 35.6875C16.2188 36.5117 18.3714 36.9362 20.545 36.9375C25.0318 36.9276 29.3315 35.1391 32.5019 31.9641C35.6721 28.7891 37.4543 24.4867 37.4575 20C37.4608 17.6856 36.9841 15.3957 36.0575 13.275ZM20.5325 6.48747C22.4845 6.48727 24.4129 6.9139 26.1825 7.73747C25.751 7.92394 25.2973 8.05417 24.8325 8.12499C23.3033 8.34635 21.8866 9.05632 20.794 10.1489C19.7014 11.2416 18.9914 12.6582 18.77 14.1875C18.6729 15.0451 18.2828 15.843 17.6656 16.4465C17.0485 17.05 16.2421 17.422 15.3825 17.5C13.8533 17.7214 12.4366 18.4314 11.344 19.524C10.2514 20.6166 9.54139 22.0332 9.32003 23.5625C9.24508 24.378 8.89714 25.1444 8.33253 25.7375C7.35834 23.6791 6.92072 21.4076 7.06037 19.1346C7.20002 16.8616 7.9124 14.6609 9.13124 12.7371C10.3501 10.8135 12.0357 9.22937 14.0314 8.13229C16.027 7.0352 18.2678 6.46079 20.545 6.46247L20.5325 6.48747ZM10.195 28.75C10.345 28.6125 10.495 28.4875 10.645 28.3375C11.7571 27.2594 12.4709 25.8361 12.67 24.3C12.7508 23.4365 13.1363 22.63 13.7575 22.025C14.3554 21.4027 15.16 21.0204 16.02 20.95C17.5493 20.7286 18.9659 20.0186 20.0585 18.926C21.1511 17.8334 21.8611 16.4167 22.0825 14.8875C22.1366 13.9844 22.5241 13.1335 23.17 12.5C23.7826 11.8898 24.5949 11.5214 25.4575 11.4625C26.8624 11.2692 28.1726 10.6446 29.2075 9.67499C30.3859 10.6526 31.3841 11.8286 32.1575 13.15C32.11 13.2141 32.0555 13.2729 31.995 13.325C31.3984 13.9527 30.5948 14.3435 29.7325 14.425C28.2016 14.6425 26.7829 15.3512 25.6895 16.4445C24.5963 17.5379 23.8875 18.9566 23.67 20.4875C23.5819 21.348 23.199 22.1516 22.5863 22.7621C21.9734 23.3727 21.1684 23.7526 20.3075 23.8375C18.7738 24.0571 17.3519 24.7657 16.2529 25.8579C15.154 26.9501 14.4366 28.3676 14.2075 29.9C14.1403 30.5109 13.9304 31.0975 13.595 31.6125C12.3125 30.851 11.1639 29.884 10.195 28.75ZM20.5325 33.575C19.2641 33.5764 18.0018 33.3996 16.7825 33.05C17.1996 32.2725 17.4708 31.4251 17.5825 30.55C17.6701 29.6914 18.0513 28.8892 18.6615 28.279C19.2718 27.6687 20.0739 27.2876 20.9325 27.2C22.464 26.9811 23.8835 26.2722 24.9786 25.1794C26.0736 24.0866 26.7855 22.6685 27.0075 21.1375C27.0951 20.2789 27.4763 19.4767 28.0865 18.8665C28.6968 18.2562 29.4989 17.8751 30.3575 17.7875C31.51 17.6376 32.6085 17.2085 33.5575 16.5375C34.0845 18.5349 34.1469 20.6264 33.74 22.6516C33.3331 24.6769 32.4676 26.5821 31.2101 28.221C29.9526 29.8597 28.3365 31.1889 26.4855 32.1061C24.6346 33.0234 22.5983 33.5045 20.5325 33.5125V33.575Z" fill="#666666"/>
</svg>
