<svg width="158" height="40" viewBox="0 0 158 40" fill="none" xmlns="http://www.w3.org/2000/svg">
<path d="M18.5295 7.82349V2.82349H2.76477V37.1764H18.5295V32.1764C15.3001 32.1764 12.2029 30.8935 9.91941 28.61C7.63588 26.3264 6.35301 23.2294 6.35301 20C6.35301 16.7706 7.63588 13.6734 9.91941 11.3899C12.2029 9.10637 15.3001 7.82349 18.5295 7.82349Z" fill="#666666"/>
<path d="M18.5295 7.82349V32.1764C21.759 32.1764 24.8561 30.8935 27.1397 28.61C29.4232 26.3264 30.706 23.2294 30.706 20C30.706 16.7706 29.4232 13.6734 27.1397 11.3899C24.8561 9.10637 21.759 7.82349 18.5295 7.82349Z" fill="#666666"/>
<path d="M39.553 10.8823H43.0824V27.8823H39.553V10.8823Z" fill="#666666"/>
<path d="M45.0589 22.0588C45.0589 20.8357 45.4221 19.6402 46.1023 18.6237C46.7826 17.6073 47.7493 16.8156 48.88 16.3491C50.0107 15.8828 51.2543 15.7626 52.4534 16.0037C53.6524 16.2449 54.7529 16.8367 55.6153 17.704C56.4776 18.5714 57.0631 19.6751 57.2975 20.8756C57.5317 22.0761 57.4044 23.319 56.9315 24.447C56.4586 25.5749 55.6615 26.5371 54.6411 27.2115C53.6208 27.886 52.4231 28.2422 51.2001 28.2353C50.3889 28.2416 49.5845 28.086 48.8343 27.7773C48.0841 27.4687 47.4029 27.0134 46.8309 26.4382C46.2589 25.8629 45.8076 25.1791 45.5033 24.4271C45.199 23.6751 45.048 22.87 45.0589 22.0588ZM53.906 22.0588C53.8921 21.5315 53.723 21.02 53.42 20.5883C53.1169 20.1565 52.6934 19.8237 52.2021 19.6315C51.7109 19.4393 51.174 19.3961 50.6584 19.5075C50.1428 19.6188 49.6715 19.8796 49.3034 20.2575C48.9353 20.6353 48.6867 21.1131 48.5888 21.6315C48.4909 22.1498 48.548 22.6855 48.7529 23.1715C48.9578 23.6575 49.3015 24.0724 49.741 24.3641C50.1804 24.6558 50.6961 24.8115 51.2236 24.8117C51.5828 24.8188 51.9395 24.7516 52.2715 24.6144C52.6035 24.4774 52.9036 24.2733 53.1531 24.0149C53.4027 23.7566 53.5962 23.4494 53.7217 23.1129C53.8473 22.7763 53.902 22.4175 53.8824 22.0588H53.906Z" fill="#666666"/>
<path d="M71.306 16.2353V27.3058C71.306 31.2117 68.2472 32.8706 65.1531 32.8706C64.0617 32.9601 62.967 32.7433 61.9922 32.2444C61.0174 31.7456 60.2012 30.9846 59.6354 30.047L62.6119 28.3294C62.8531 28.8157 63.2367 29.2169 63.7118 29.4796C64.1868 29.7423 64.7306 29.8541 65.2707 29.8C65.6148 29.8423 65.964 29.8082 66.2933 29.7C66.6227 29.5916 66.924 29.412 67.1758 29.1736C67.4277 28.9353 67.6237 28.6443 67.7499 28.3214C67.8761 27.9986 67.9294 27.6517 67.906 27.3058V26.2353C67.4953 26.7333 66.9741 27.1286 66.384 27.39C65.7938 27.6514 65.1508 27.7716 64.506 27.7411C62.9459 27.7411 61.4498 27.1214 60.3466 26.0182C59.2434 24.9151 58.6237 23.4189 58.6237 21.8588C58.6237 20.2987 59.2434 18.8026 60.3466 17.6994C61.4498 16.5962 62.9459 15.9764 64.506 15.9764C65.1508 15.946 65.7938 16.0662 66.384 16.3276C66.9741 16.589 67.4953 16.9843 67.906 17.4823V16.3058L71.306 16.2353ZM67.906 21.8235C67.9294 21.2607 67.784 20.7036 67.4884 20.2241C67.1927 19.7446 66.7605 19.3644 66.247 19.1325C65.7335 18.9007 65.1626 18.8277 64.6073 18.923C64.0521 19.0183 63.538 19.2775 63.1313 19.6673C62.7246 20.057 62.4438 20.5596 62.325 21.1103C62.2061 21.661 62.2547 22.2345 62.4645 22.7574C62.6744 23.2802 63.0358 23.7283 63.5022 24.0441C63.9688 24.3598 64.5192 24.5289 65.0825 24.5294C65.4501 24.5558 65.8192 24.5049 66.1658 24.38C66.5125 24.2549 66.8292 24.0585 67.0952 23.8035C67.3613 23.5486 67.571 23.2405 67.7106 22.8995C67.8502 22.5584 67.9168 22.1918 67.906 21.8235Z" fill="#666666"/>
<path d="M73.2942 22.0588C73.2942 20.8367 73.6568 19.6421 74.336 18.6261C75.0152 17.6101 75.9805 16.8185 77.1098 16.3514C78.2391 15.8842 79.4815 15.7626 80.68 16.0019C81.8785 16.2412 82.9789 16.8306 83.8423 17.6955C84.7056 18.5606 85.2929 19.6622 85.5299 20.8611C85.7669 22.06 85.6429 23.3022 85.1736 24.4306C84.7044 25.5591 83.9108 26.5228 82.8936 27.2001C81.8764 27.8774 80.6811 28.2376 79.4589 28.2353C78.6462 28.2432 77.84 28.0887 77.0878 27.7809C76.3355 27.4732 75.6522 27.0183 75.0781 26.4431C74.5039 25.8678 74.0504 25.1836 73.744 24.4308C73.4378 23.678 73.2848 22.8715 73.2942 22.0588ZM82.1413 22.0588C82.1274 21.5311 81.958 21.0191 81.6545 20.5871C81.3509 20.1552 80.9266 19.8223 80.4347 19.6305C79.9428 19.4386 79.4053 19.3961 78.8894 19.5085C78.3735 19.6207 77.9022 19.8828 77.5346 20.2618C77.1669 20.6407 76.9193 21.1198 76.8228 21.6388C76.7262 22.1579 76.7849 22.6939 76.9916 23.1796C77.1983 23.6655 77.5439 24.0795 77.9849 24.3699C78.4259 24.6601 78.9427 24.8139 79.4707 24.8118C79.8299 24.8188 80.1866 24.7516 80.5186 24.6145C80.8506 24.4774 81.1507 24.2733 81.4002 24.0149C81.6498 23.7566 81.8433 23.4494 81.9688 23.1129C82.0943 22.7763 82.1491 22.4175 82.1295 22.0588H82.1413Z" fill="#666666"/>
<path d="M87.2589 13.1177C87.2589 12.7036 87.3817 12.2986 87.6118 11.9543C87.842 11.6099 88.169 11.3415 88.5516 11.183C88.9343 11.0245 89.3554 10.983 89.7616 11.0638C90.1677 11.1446 90.5409 11.344 90.8338 11.6369C91.1267 11.9298 91.3261 12.303 91.4069 12.7091C91.4877 13.1153 91.4462 13.5364 91.2877 13.9191C91.1293 14.3017 90.8608 14.6287 90.5164 14.8589C90.1721 15.089 89.7673 15.2118 89.353 15.2118C88.7995 15.2057 88.2704 14.9831 87.879 14.5917C87.4876 14.2003 87.265 13.6712 87.2589 13.1177ZM87.6001 16.2353H91.1295V27.8824H87.6001V16.2353Z" fill="#666666"/>
<path d="M106.235 22.0589C106.275 22.8335 106.161 23.6083 105.9 24.3386C105.639 25.069 105.236 25.7405 104.714 26.3145C104.193 26.8886 103.563 27.3538 102.861 27.6835C102.159 28.0131 101.398 28.2006 100.624 28.2354C99.9661 28.2791 99.3072 28.1738 98.6961 27.9274C98.0849 27.6808 97.5374 27.2995 97.0942 26.8118V32.5648H93.5648V16.2354H97.0942V17.3295C97.538 16.8432 98.086 16.4637 98.6972 16.2192C99.3083 15.9746 99.9669 15.8716 100.624 15.9177C101.395 15.9524 102.153 16.1389 102.852 16.4663C103.552 16.7937 104.18 17.2558 104.701 17.8261C105.223 18.3963 105.626 19.0636 105.889 19.7899C106.153 20.5162 106.27 21.2871 106.235 22.0589ZM102.706 22.0589C102.692 21.5124 102.517 20.9823 102.203 20.5349C101.889 20.0875 101.45 19.7425 100.941 19.5436C100.432 19.3445 99.8758 19.3003 99.3415 19.4162C98.8074 19.5321 98.3194 19.8031 97.9386 20.1952C97.5578 20.5874 97.3012 21.0831 97.2011 21.6205C97.1008 22.1578 97.1614 22.7128 97.3753 23.2158C97.5892 23.7188 97.9467 24.1475 98.4032 24.4482C98.8596 24.7489 99.3947 24.9081 99.9413 24.9059C100.316 24.9218 100.689 24.8584 101.037 24.7198C101.386 24.5812 101.7 24.3706 101.962 24.1018C102.223 23.833 102.424 23.5119 102.552 23.1599C102.68 22.8078 102.733 22.4326 102.706 22.0589Z" fill="#666666"/>
<path d="M116.976 24.3882C116.976 27.0705 114.624 28.2117 112.129 28.2117C111.112 28.3032 110.091 28.0876 109.197 27.5927C108.304 27.0977 107.58 26.3462 107.118 25.4352L110.153 23.7176C110.273 24.1374 110.534 24.5031 110.892 24.7537C111.249 25.0043 111.682 25.1244 112.118 25.0941C112.953 25.0941 113.376 24.8352 113.376 24.3647C113.376 23.0823 107.647 23.7647 107.647 19.7294C107.647 17.1882 109.788 15.9176 112.212 15.9176C113.133 15.8763 114.048 16.0854 114.86 16.5224C115.672 16.9595 116.351 17.6083 116.824 18.4L113.788 19.9999C113.654 19.6964 113.435 19.4383 113.157 19.2567C112.88 19.075 112.555 18.9777 112.224 18.9764C111.612 18.9764 111.247 19.2117 111.247 19.6235C111.247 20.9647 116.976 20.0823 116.976 24.3882Z" fill="#666666"/>
<path d="M129.765 16.2354V27.8824H126.235V26.7883C125.834 27.2726 125.325 27.6558 124.749 27.9072C124.173 28.1586 123.546 28.271 122.918 28.2354C120.565 28.2354 118.553 26.553 118.553 23.4118V16.2354H122.082V22.8824C122.054 23.1603 122.087 23.4409 122.179 23.7049C122.271 23.9688 122.418 24.2097 122.611 24.4111C122.805 24.6124 123.04 24.7694 123.3 24.8711C123.56 24.9728 123.839 25.0168 124.118 25.0001C125.388 25.0001 126.282 24.2471 126.282 22.6471V16.2354H129.765Z" fill="#666666"/>
<path d="M149.765 20.7294V27.8823H146.235V21.0353C146.235 19.8588 145.682 19.1294 144.565 19.1294C143.447 19.1294 142.741 19.9411 142.741 21.3176V27.8823H139.212V21.0353C139.212 19.8588 138.659 19.1294 137.541 19.1294C136.424 19.1294 135.718 19.9411 135.718 21.3176V27.8823H132.188V16.2353H135.718V17.3058C136.084 16.8329 136.56 16.4583 137.107 16.216C137.653 15.9736 138.252 15.871 138.847 15.9176C139.444 15.8864 140.039 16.0111 140.573 16.2793C141.107 16.5474 141.562 16.9498 141.894 17.447C142.282 16.9275 142.795 16.5148 143.386 16.2474C143.975 15.9798 144.625 15.8664 145.271 15.9176C148.024 15.9176 149.765 17.8235 149.765 20.7294Z" fill="#666666"/>
<path d="M152.729 16.1648C154.159 16.1648 155.318 15.0059 155.318 13.5765C155.318 12.1471 154.159 10.9883 152.729 10.9883C151.3 10.9883 150.141 12.1471 150.141 13.5765C150.141 15.0059 151.3 16.1648 152.729 16.1648Z" fill="#666666"/>
</svg>
