<svg width="256" height="32" viewBox="0 0 256 32" fill="none" xmlns="http://www.w3.org/2000/svg">
<path d="M127.483 27.5773H118.86V4.52383H127.483V27.5773ZM119.702 26.7352H126.641V5.36593H119.702V26.7352ZM139.481 27.5773H131.032V4.52383H148.686C151.215 4.31903 153.733 5.02904 155.783 6.52467C156.665 7.33193 157.349 8.33215 157.781 9.44727C158.213 10.5624 158.382 11.7623 158.274 12.9533C158.4 15.0114 157.745 17.0412 156.44 18.6375C154.895 20.4093 152.325 21.3221 148.802 21.3541C147.914 21.3777 141.263 21.3541 139.486 21.3541L139.481 27.5773ZM131.869 26.7352H138.639V20.5036H139.062C139.148 20.5036 147.783 20.5306 148.782 20.5036C152.064 20.475 154.424 19.6615 155.803 18.0733C156.965 16.629 157.542 14.8011 157.42 12.9516C157.523 11.8845 157.38 10.8078 157 9.80508C156.62 8.80238 156.015 7.90062 155.23 7.16972C153.33 5.80568 151.005 5.1654 148.674 5.36425H131.874L131.869 26.7352ZM146.897 16.1752H138.582V9.89983H146.952C147.546 9.81784 148.15 9.8871 148.71 10.1011C149.269 10.3152 149.765 10.6671 150.152 11.1242C150.504 11.7086 150.669 12.3857 150.627 13.0661C150.659 13.6979 150.522 14.3267 150.232 14.8885C149.832 15.3699 149.316 15.7406 148.732 15.9648C148.148 16.1889 147.516 16.2591 146.897 16.1685V16.1752ZM139.424 15.3331H146.897C148.278 15.3331 149.134 15.0451 149.512 14.4523C149.721 14.0213 149.816 13.5441 149.787 13.0661C149.824 12.5644 149.715 12.0626 149.474 11.6211L149.464 11.6059C149.063 11.0165 148.266 10.7419 146.952 10.7419H139.424V15.3331ZM173.642 27.9175C166.08 27.9175 161.566 26.0396 159.847 22.1777C159.565 21.4318 159.374 20.6549 159.278 19.8636L159.203 19.3786H168.2L168.259 19.7323C168.329 20.0913 168.482 20.4293 168.704 20.7192C169.059 21.1487 170.245 21.8695 174.179 21.8695C178.909 21.8695 178.909 21.0392 178.909 20.5929C178.909 19.84 178.361 19.5824 174.504 19.1714L173.772 19.1024C172.32 18.9659 170.484 18.7925 169.646 18.72C162.572 18.08 159.414 15.8821 159.414 11.5958C159.414 7.09394 164.788 4.1853 173.107 4.1853C179.892 4.1853 184.264 5.97393 186.099 9.50572C186.533 10.3272 186.826 11.2169 186.963 12.1365L187.022 12.6097H178.014L177.977 12.2291C177.942 11.9316 177.816 11.6526 177.614 11.4308C177.277 10.9794 176.212 10.2333 172.908 10.2333C168.851 10.2333 168.291 10.752 168.291 11.3112C168.291 12.0573 169.573 12.3217 173.681 12.7613C175.394 12.9011 178.147 13.184 179.091 13.2986C185.021 13.9419 187.667 16.0859 187.667 20.2527C187.668 23.7474 185.235 27.9175 173.642 27.9175ZM160.187 20.2207C160.271 20.7761 160.417 21.3205 160.62 21.8443C162.186 25.3626 166.447 27.0754 173.642 27.0754C179.658 27.0754 186.831 25.8965 186.831 20.2527C186.831 16.5592 184.49 14.7301 179.001 14.1356C178.058 14.0211 175.321 13.7398 173.612 13.5984C169.233 13.1234 167.453 12.8708 167.453 11.3112C167.453 9.69772 169.371 9.3912 172.911 9.3912C175.709 9.3912 177.516 9.89646 178.282 10.9154C178.491 11.1664 178.649 11.456 178.747 11.7676H186.046C185.9 11.1163 185.667 10.4871 185.356 9.89646C183.672 6.66446 179.557 5.02741 173.11 5.02741C165.304 5.02741 160.259 7.60594 160.259 11.5958C160.259 15.4021 163.091 17.2817 169.723 17.8813C170.565 17.9537 172.399 18.1272 173.854 18.2653L174.592 18.3344C178.174 18.7116 179.754 18.9474 179.754 20.5929C179.754 22.3647 177.711 22.7116 174.183 22.7116C170.919 22.7116 168.857 22.2215 168.061 21.2565C167.815 20.9488 167.63 20.5973 167.515 20.2207H160.187ZM203.667 27.8889C194.875 27.8889 190.024 24.3335 190.024 17.8763V4.52383H198.533V17.8763C198.533 20.091 200.515 21.3609 203.97 21.3609C207.271 21.3609 209.32 20.0354 209.32 17.9049V4.52383H217.742V18.5836C217.75 24.4969 212.615 27.8889 203.662 27.8889H203.667ZM190.867 5.36593V17.8763C190.867 25.856 198.88 27.0468 203.667 27.0468C208.615 27.0468 216.913 25.947 216.913 18.5836V5.36593H210.176V17.9049C210.176 20.5154 207.744 22.203 203.983 22.203C200.052 22.203 197.704 20.5861 197.704 17.8763V5.36593H190.867ZM253.427 27.5773H245.396V17.1689L240.842 27.5773H233.838L229.331 17.1891V27.5773H221.272V4.52383H231.872L237.379 17.2346L243.153 4.52383H253.437L253.427 27.5773ZM246.238 26.7352H252.584V5.36593H243.688L237.352 19.3095L231.313 5.36593H222.107V26.7352H228.482V13.1369L234.376 26.7403H240.271L246.228 13.1571L246.238 26.7352ZM10.1963 4.94488H2.52637V27.1563H23.7205V21.243H10.1963V4.94488ZM39.2017 4.43962C29.4114 4.43962 24.2628 9.07962 24.2628 15.8923C24.2628 23.5891 29.6674 27.4931 39.2017 27.4931C49.6977 27.4931 54.1121 22.9659 54.1121 15.8923C54.1121 8.70909 49.1318 4.43625 39.2017 4.43625V4.43962ZM39.1731 10.2114C39.8395 10.2083 40.5057 10.2471 41.1672 10.3276L32.5929 18.9019C32.1872 17.9842 31.9893 16.988 32.0135 15.9849C32.0135 12.5003 33.7685 10.208 39.1731 10.208V10.2114ZM39.2017 21.8123C38.5595 21.8151 37.9179 21.7791 37.2801 21.7045L45.8695 13.115C46.2601 14.0176 46.447 14.9951 46.4169 15.9781C46.4169 19.3685 44.8 21.8089 39.2017 21.8089V21.8123ZM69.3087 18.7807H77.2026C77.0864 19.3285 76.8442 19.8417 76.4952 20.2796C74.8587 21.6128 72.7701 22.2616 70.6662 22.0901C69.6071 22.2035 68.5363 22.0878 67.5259 21.7509C66.5156 21.4143 65.5893 20.8642 64.8102 20.1381C64.012 18.9675 63.6329 17.5615 63.7339 16.1483C63.6048 14.6674 64.0171 13.19 64.8944 11.9899C65.9975 10.7436 67.8653 10.2064 70.6106 10.2064C72.3573 10.0617 74.1018 10.5103 75.5622 11.4796C76.0225 11.8452 76.3665 12.3367 76.5525 12.8944H83.8737C83.8205 11.9756 83.5995 11.0743 83.2219 10.235C81.4687 6.66951 77.3929 4.54741 70.4624 4.54741C64.4346 4.54741 60.3891 6.38657 58.1542 9.16046C56.6781 11.1636 55.9204 13.6058 56.0034 16.0927C55.9079 18.6358 56.6461 21.1404 58.1053 23.2253C60.3133 26.0885 64.2459 27.4965 68.9718 27.4965C72.1137 27.7156 75.2342 26.8356 77.7988 25.0072L77.9975 27.1563H84.0792V13.9992H69.3087V18.7807ZM101.341 4.43457C91.5521 4.43457 86.4017 9.07457 86.4017 15.8872C86.4017 23.584 91.8047 27.488 101.341 27.488C111.838 27.488 116.253 22.9609 116.253 15.8872C116.253 8.70909 111.272 4.43625 101.341 4.43625V4.43457ZM101.314 10.2064C101.963 10.2044 102.611 10.2416 103.256 10.3175L94.715 18.8632C94.3219 17.9556 94.1306 16.9737 94.1542 15.9849C94.1474 12.5003 95.9091 10.208 101.314 10.208V10.2064ZM101.341 21.8072C100.681 21.8101 100.023 21.7717 99.3685 21.6927L107.987 13.0729C108.392 13.9875 108.586 14.9816 108.554 15.9815C108.558 19.3685 106.947 21.8089 101.341 21.8089V21.8072Z" fill="#666666"/>
</svg>
