<svg width="64" height="63" viewBox="0 0 64 63" fill="none" xmlns="http://www.w3.org/2000/svg">
<circle cx="31.9998" cy="31.5554" r="31.1111" fill="#487FFF"/>
<path d="M27.1005 39.0616L32.0005 36.106L36.9005 39.1004L35.6172 33.5004L39.9338 29.7671L34.2561 29.2616L32.0005 23.9727L29.745 29.2227L24.0672 29.7282L28.3838 33.5004L27.1005 39.0616ZM32.0005 39.7616L25.545 43.6504C25.2598 43.8319 24.9616 43.9097 24.6505 43.8838C24.3394 43.8578 24.0672 43.7541 23.8338 43.5727C23.6005 43.3912 23.419 43.1646 23.2894 42.8929C23.1598 42.6212 23.1338 42.3163 23.2116 41.9782L24.9227 34.6282L19.2061 29.6893C18.9468 29.456 18.785 29.19 18.7207 28.8913C18.6564 28.5927 18.6756 28.3013 18.7783 28.0171C18.881 27.733 19.0365 27.4996 19.245 27.3171C19.4534 27.1346 19.7386 27.0179 20.1005 26.9671L27.645 26.306L30.5616 19.3838C30.6913 19.0727 30.8924 18.8393 31.1652 18.6838C31.4379 18.5282 31.7164 18.4504 32.0005 18.4504C32.2847 18.4504 32.5631 18.5282 32.8358 18.6838C33.1086 18.8393 33.3098 19.0727 33.4394 19.3838L36.3561 26.306L43.9005 26.9671C44.2635 27.019 44.5487 27.1356 44.7561 27.3171C44.9635 27.4986 45.119 27.7319 45.2227 28.0171C45.3264 28.3023 45.3461 28.5942 45.2818 28.8929C45.2176 29.1916 45.0553 29.457 44.795 29.6893L39.0783 34.6282L40.7894 41.9782C40.8672 42.3153 40.8413 42.6201 40.7116 42.8929C40.582 43.1656 40.4005 43.3922 40.1672 43.5727C39.9338 43.7531 39.6616 43.8568 39.3505 43.8838C39.0394 43.9107 38.7413 43.833 38.4561 43.6504L32.0005 39.7616Z" fill="white"/>
</svg>
